# xmcd CD database file
#
# Track frame offsets:
#	150
#	139553
#	215415
#	250643
#
# Disc length: 3576 seconds
#
# Revision: 0
# Processed by: cddbd v1.5.2PL0 Copyright (c) Steve Scherf et al.
# Submitted via: CDex 1.51
#
DISCID=2f0df604
DTITLE=The Uncommon Orchestra - A Bigger Show Set 2
DYEAR=2015
DGENRE=Jazz
TTITLE0=Propositions
TTITLE1=Gas, Dust, Stone
TTITLE2=Lovers Galore
TTITLE3=The Uncommon Orchestra
EXTD=YEAR: 2015
EXTT0=
EXTT1=
EXTT2=
EXTT3=
PLAYORDER=
